<svg width="12" height="12" viewBox="0 0 12 12" fill="none" xmlns="http://www.w3.org/2000/svg">
<path d="M5 1V2M7 1V2M8 4C8.13261 4 8.25979 4.05268 8.35355 4.14645C8.44732 4.24021 8.5 4.36739 8.5 4.5V8.5C8.5 9.03043 8.28929 9.53914 7.91421 9.91421C7.53914 10.2893 7.03043 10.5 6.5 10.5H3.5C2.96957 10.5 2.46086 10.2893 2.08579 9.91421C1.71071 9.53914 1.5 9.03043 1.5 8.5V4.5C1.5 4.36739 1.55268 4.24021 1.64645 4.14645C1.74021 4.05268 1.86739 4 2 4H9C9.53043 4 10.0391 4.21071 10.4142 4.58579C10.7893 4.96086 11 5.46957 11 6C11 6.53043 10.7893 7.03914 10.4142 7.41421C10.0391 7.78929 9.53043 8 9 8H8.5M3 1V2" stroke="black" stroke-linecap="round" stroke-linejoin="round"/>
</svg>
