<svg width="24" height="24" viewBox="0 0 24 24" fill="none" xmlns="http://www.w3.org/2000/svg">
<path d="M21.5401 15.0001H17C16.4696 15.0001 15.9609 15.2108 15.5858 15.5859C15.2108 15.9609 15 16.4697 15 17.0001V21.5401M7.00005 3.34009V5.00009C7.00005 5.79574 7.31612 6.5588 7.87873 7.12141C8.44134 7.68402 9.2044 8.00009 10 8.00009C10.5305 8.00009 11.0392 8.2108 11.4143 8.58587C11.7893 8.96095 12 9.46965 12 10.0001C12 11.1001 12.9 12.0001 14 12.0001C14.5305 12.0001 15.0392 11.7894 15.4143 11.4143C15.7893 11.0392 16 10.5305 16 10.0001C16 8.90009 16.9 8.00009 18 8.00009H21.17M11 21.9501V18.0001C11 17.4697 10.7893 16.9609 10.4143 16.5859C10.0392 16.2108 9.53048 16.0001 9.00005 16.0001C8.46962 16.0001 7.96091 15.7894 7.58584 15.4143C7.21076 15.0392 7.00005 14.5305 7.00005 14.0001V13.0001C7.00005 12.4697 6.78934 11.9609 6.41426 11.5859C6.03919 11.2108 5.53048 11.0001 5.00005 11.0001H2.05005" stroke="black" stroke-width="2" stroke-linecap="round" stroke-linejoin="round"/>
<path d="M12 22C17.5228 22 22 17.5228 22 12C22 6.47715 17.5228 2 12 2C6.47715 2 2 6.47715 2 12C2 17.5228 6.47715 22 12 22Z" stroke="black" stroke-width="2" stroke-linecap="round" stroke-linejoin="round"/>
</svg>
