<svg width="512" height="512" viewBox="0 0 512 512" fill="none" xmlns="http://www.w3.org/2000/svg">
<g clip-path="url(#clip0_42_408)">
<rect width="512" height="512" fill="#FF5924"/>
<path d="M390.776 75.4844C412.158 73.2337 431.851 74.078 449.856 78.0166C467.862 81.3926 482.21 87.3004 492.9 95.7403L428.757 409.708C412.44 396.204 392.465 386.92 368.833 381.856C345.764 376.792 322.412 375.105 298.78 376.793C275.148 377.918 254.329 381.856 236.324 388.608C219.105 395.066 207.289 403.324 200.877 413.384V615.645H-91.1475V92.3643H200.877V410.564L245.608 187.736C250.672 163.542 260.519 143.567 275.148 127.813C290.34 111.495 308.064 99.1168 328.32 90.6768C348.576 82.2368 369.395 77.1724 390.776 75.4844Z" fill="black"/>
</g>
<defs>
<clipPath id="clip0_42_408">
<rect width="512" height="512" fill="white"/>
</clipPath>
</defs>
</svg>
