<svg width="843" height="168" viewBox="0 0 843 168" fill="none" xmlns="http://www.w3.org/2000/svg">
<path d="M91.3564 2.07324C93.563 2.07333 95.77 2.95545 97.9766 4.7207C100.404 6.26535 101.728 8.03162 101.948 10.0176L78.7783 41.1309C69.731 53.2675 61.5662 64.5222 54.2842 74.8936C47.0023 85.0441 40.7129 94.2016 35.417 102.366C32.769 106.559 29.7904 111.304 26.4805 116.6C23.1705 121.896 20.1909 127.412 17.543 133.149C15.1157 138.666 13.9023 144.293 13.9023 150.03C13.9024 152.678 14.6741 155.106 16.2188 157.312C17.7634 159.298 20.5222 160.291 24.4941 160.291C31.5554 160.291 40.8233 156.54 52.2979 149.037C63.7725 141.314 75.1376 130.721 86.3916 117.261C87.4948 115.937 88.7084 114.723 90.0322 113.62C91.356 112.517 92.4592 111.965 93.3418 111.965C94.4451 111.965 94.9971 112.627 94.9971 113.951C94.997 114.613 94.2243 115.937 92.6797 117.923C91.3557 119.688 90.2528 121.123 89.3701 122.227L81.4258 131.163C77.0125 136.018 71.7166 141.314 65.5381 147.051C59.5801 152.788 53.1805 157.643 46.3398 161.615C39.72 165.587 32.9899 167.573 26.1494 167.573C19.7502 167.573 13.792 166.029 8.27539 162.939C2.75872 159.629 0 154.222 0 146.72C9.28489e-05 136.349 3.64107 123.991 10.9229 109.648C18.4255 95.3051 26.9215 80.4096 36.4102 64.9629C62.2281 23.0363 80.5438 2.07324 91.3564 2.07324ZM495.719 28.251C508.487 28.251 520.103 31.2656 530.565 37.2949C541.205 43.3242 549.54 51.6589 555.569 62.2988C561.599 72.7615 564.613 84.4658 564.613 97.4111V100.071H440.657C441.012 110.179 443.672 119.312 448.637 127.469C453.602 135.449 460.164 141.745 468.321 146.355C476.656 150.966 485.788 153.271 495.719 153.271C507.245 153.271 517.443 150.611 526.31 145.291C535.176 139.971 541.206 132.967 544.397 124.277H559.825C557.697 132.257 553.618 139.439 547.589 145.823C541.56 152.207 534.023 157.261 524.979 160.985C516.113 164.709 506.359 166.571 495.719 166.571C482.774 166.571 470.981 163.557 460.341 157.527C449.878 151.498 441.544 143.252 435.337 132.789C429.308 122.326 426.293 110.622 426.293 97.6768C426.293 84.7316 429.308 72.9387 435.337 62.2988C441.544 51.6589 449.967 43.3242 460.607 37.2949C471.247 31.2658 482.951 28.251 495.719 28.251ZM327.312 32.6338H399.314V69.9297H317.729C308.406 74.419 303.743 83.4844 303.743 97.125C303.743 115.773 313.326 125.097 332.492 125.097C341.989 125.097 349.155 123.198 353.989 119.399C358.824 115.601 361.241 110.679 361.241 104.636V101.27H410.71V105.672C410.71 124.492 404.149 139.342 391.026 150.22C377.904 161.098 358.392 166.537 332.492 166.537C307.11 166.537 288.116 161.962 275.512 152.811C262.907 143.487 256.606 131.572 256.605 117.068C256.605 105.154 260.318 95.312 267.742 87.542C275.167 79.7721 284.404 75.4551 295.455 74.5918V69.9297H241.842V34.7061H270.851C276.548 34.706 280.606 33.4973 283.023 31.0801C285.613 28.6627 286.908 24.605 286.908 18.9072V0H327.312V32.6338ZM163.832 27.0088C167.681 27.0088 171.62 27.3669 175.648 28.083C179.677 28.7096 183.616 29.7387 187.465 31.1709C191.314 32.6032 194.939 34.3936 198.341 36.542C201.832 38.6009 204.921 41.0632 207.606 43.9277C209.576 46.0761 211.187 48.6272 212.44 51.5811C213.783 54.4456 214.812 57.4893 215.528 60.7119C216.334 63.9346 216.871 67.2025 217.14 70.5146C217.498 73.7371 217.677 76.7358 217.677 79.5107C217.677 83.2705 217.543 86.986 217.274 90.6562C217.095 94.2368 217.006 97.9074 217.006 101.667C217.006 105.248 217.185 108.829 217.543 112.409C217.991 115.9 218.482 119.436 219.02 123.017C219.557 126.508 220.004 130.044 220.362 133.625C220.81 137.116 221.034 140.608 221.034 144.099C221.213 146.247 221.482 147.59 221.84 148.127C222.287 148.574 222.735 148.798 223.183 148.798C225.152 148.798 226.718 148.216 227.882 147.053C229.135 145.8 230.255 144.457 231.239 143.024C232.224 141.503 233.298 140.115 234.462 138.861C235.626 137.608 237.102 136.981 238.893 136.981C239.698 136.981 240.504 137.027 241.31 137.116C242.205 137.206 243.01 137.429 243.727 137.787C244.443 138.056 245.025 138.503 245.473 139.13C245.92 139.667 246.144 140.429 246.144 141.413C246.143 142.935 245.875 144.367 245.338 145.71C244.801 147.053 244.309 148.44 243.861 149.872C243.503 151.125 243.235 152.155 243.056 152.961C242.966 153.766 242.787 154.483 242.519 155.109C242.25 155.646 241.802 156.184 241.176 156.721C240.639 157.168 239.743 157.705 238.49 158.332C235.805 159.764 232.94 161.241 229.896 162.763C226.942 164.195 223.943 164.911 220.899 164.911C218.304 164.911 215.842 164.33 213.515 163.166C211.277 161.913 209.172 160.57 207.203 159.138C205.323 157.616 203.578 156.228 201.967 154.975C200.445 153.721 199.146 153.095 198.072 153.095C196.909 153.095 195.88 153.409 194.984 154.035C194.179 154.662 193.328 155.333 192.433 156.049C191.627 156.765 190.687 157.437 189.613 158.063C188.629 158.69 187.375 159.003 185.854 159.003C184.6 159.003 183.302 159.227 181.959 159.675C180.616 160.122 179.273 160.66 177.931 161.286C176.588 161.823 175.201 162.405 173.769 163.031C172.426 163.568 171.172 164.016 170.009 164.374C165.98 165.448 161.907 166.075 157.789 166.254C153.761 166.433 149.688 166.522 145.57 166.522C144.496 166.522 142.84 166.478 140.602 166.389C138.364 166.389 136.081 166.164 133.754 165.717C131.516 165.359 129.501 164.732 127.711 163.837C126.01 162.942 125.16 161.688 125.16 160.077C125.16 159.719 125.205 159.406 125.294 159.138C124.667 159.854 123.951 160.435 123.146 160.883C122.34 161.33 121.445 161.555 120.46 161.555C119.028 161.555 117.282 160.57 115.224 158.601C113.165 156.631 111.195 154.348 109.315 151.752C107.436 149.156 105.824 146.605 104.481 144.099C103.139 141.503 102.467 139.577 102.467 138.324C102.467 137.34 102.735 136.444 103.272 135.639C103.899 134.833 104.213 133.938 104.213 132.953C104.213 131.7 104.034 130.536 103.676 129.462C103.407 128.298 103.272 127.09 103.272 125.837C103.272 124.226 103.586 122.525 104.213 120.734C104.84 118.854 105.6 117.019 106.495 115.229C107.39 113.349 108.331 111.558 109.315 109.857C110.3 108.067 111.195 106.411 112.001 104.89C112.896 103.099 114.149 101.667 115.761 100.593C117.372 99.5186 119.073 98.5781 120.863 97.7725L126.234 95.3555C128.025 94.5498 129.591 93.4755 130.934 92.1328C132.276 93.6546 134.022 94.416 136.171 94.416C138.409 94.416 140.602 94.1022 142.75 93.4756C144.898 92.7594 147.092 92.4014 149.33 92.4014C151.12 92.4014 152.821 92.5804 154.433 92.9385C156.133 93.2965 157.879 93.4756 159.669 93.4756C161.638 93.4756 163.071 93.2522 163.966 92.8047C164.951 92.2676 166.16 91.3724 167.592 90.1191C169.024 88.8659 170.814 87.9255 172.963 87.2988C175.201 86.5828 177.483 86.0455 179.811 85.6875C182.228 85.2399 184.6 84.7923 186.928 84.3447C189.345 83.8971 191.493 83.2705 193.373 82.4648C195.253 81.5697 196.775 80.4058 197.938 78.9736C199.102 77.4518 199.684 75.3928 199.684 72.7969C199.684 69.9325 198.833 66.9337 197.133 63.8008C195.521 60.5781 193.417 57.6683 190.821 55.0723C188.225 52.3868 185.361 50.194 182.228 48.4932C179.095 46.7924 176.096 45.9415 173.231 45.9414C172.873 45.9414 172.515 45.9867 172.157 46.0762C171.799 46.1657 171.485 46.21 171.217 46.21C169.068 46.568 166.651 46.8366 163.966 47.0156C161.28 47.1051 158.774 47.5085 156.446 48.2246C154.119 48.8512 152.149 49.9698 150.538 51.5811C148.927 53.1029 148.121 55.3861 148.121 58.4297C148.121 60.2199 148.256 62.0106 148.524 63.8008C148.882 65.5014 149.062 67.2469 149.062 69.0371C149.062 71.7227 148.39 73.9606 147.047 75.751C145.794 77.5412 144.138 78.9737 142.079 80.0479C140.11 81.1221 137.916 81.8835 135.499 82.3311C133.082 82.6891 130.755 82.8682 128.517 82.8682C125.831 82.8682 123.504 82.5101 121.534 81.7939C119.565 81.0778 117.953 79.4212 116.7 76.8252C115.716 74.9454 114.641 72.9315 113.478 70.7832C112.403 68.5454 111.866 66.3071 111.866 64.0693C111.866 61.6524 112.27 59.4143 113.075 57.3555C113.97 55.2071 114.955 53.1481 116.029 51.1787C117.104 49.1198 118.132 47.1051 119.117 45.1357C120.191 43.0769 120.953 40.884 121.4 38.5566C122.027 38.1986 122.877 37.8405 123.951 37.4824C125.115 37.1243 126.324 36.7663 127.577 36.4082C128.92 36.0502 130.173 35.7363 131.337 35.4678C132.59 35.1098 133.619 34.7968 134.425 34.5283C136.573 33.9017 138.632 33.1855 140.602 32.3799C142.66 31.4847 144.719 30.679 146.778 29.9629C148.927 29.2467 151.031 28.6201 153.09 28.083C155.238 27.546 157.431 27.2321 159.669 27.1426L163.832 27.0088ZM786.785 34.0791L779.657 77.6387C783.353 69.1908 787.665 61.5348 792.593 54.6709C797.521 47.8069 802.713 42.3507 808.169 38.3027C813.625 34.0788 819.081 31.9668 824.537 31.9668C829.993 31.9668 834.393 33.4631 837.737 36.4551C841.081 39.2711 842.753 43.0556 842.753 47.8076C842.753 52.7353 841.257 56.7833 838.266 59.9512C835.45 63.1191 831.577 64.7031 826.649 64.7031C822.777 64.7031 819.081 63.7348 815.562 61.7988C812.042 59.6869 808.61 56.6951 805.266 52.8232C799.106 57.3992 793.825 63.3834 789.425 70.7754C785.025 77.9913 780.977 85.9113 777.281 94.5352L774.642 106.679C772.706 116.007 770.858 125.335 769.098 134.663C767.338 143.991 765.577 153.407 763.817 162.911L732.137 164.759L729.497 162.911L749.562 66.2871C750.442 61.7112 750.178 58.3669 748.77 56.2549C747.362 53.967 744.985 52.1189 741.642 50.7109L737.682 48.8633L738.209 46.2227L784.146 31.7031L786.785 34.0791ZM701.694 27.8711C707.039 27.3085 711.963 27.5193 716.464 28.5039C720.965 29.3479 724.553 30.8255 727.226 32.9355L711.189 111.427C707.11 108.051 702.116 105.73 696.208 104.464C690.441 103.198 684.603 102.776 678.695 103.198C672.787 103.48 667.582 104.464 663.081 106.152C658.775 107.767 655.822 109.833 654.219 112.349V162.911H581.213V32.0908H654.219V111.643L665.402 55.9346C666.668 49.8859 669.13 44.8918 672.787 40.9531C676.585 36.8738 681.016 33.7789 686.08 31.6689C691.144 29.559 696.349 28.2931 701.694 27.8711ZM198.878 95.7588C198.699 95.7588 198.476 95.8484 198.207 96.0273C197.938 96.1169 197.714 96.1611 197.535 96.1611C194.134 98.041 191.225 99.6081 188.808 100.861C186.391 102.025 183.974 103.01 181.557 103.815C179.229 104.532 176.722 105.023 174.037 105.292C171.352 105.561 167.994 105.695 163.966 105.695C163.429 105.695 161.952 105.919 159.535 106.366C157.118 106.814 154.477 107.351 151.612 107.978C148.748 108.515 146.062 109.097 143.556 109.724C141.05 110.261 139.483 110.619 138.856 110.798C137.693 111.245 136.842 111.693 136.305 112.141C135.857 112.588 135.499 113.08 135.23 113.617C134.962 114.154 134.693 114.737 134.425 115.363C134.156 115.9 133.664 116.482 132.948 117.108C132.053 117.824 131.068 118.407 129.994 118.854C129.009 119.302 128.069 119.973 127.174 120.868C125.831 122.211 124.578 124.001 123.414 126.239C122.25 128.388 121.669 130.447 121.669 132.416C121.669 134.833 122.296 136.981 123.549 138.861C124.802 140.741 126.458 142.353 128.517 143.695C130.576 145.038 132.903 146.202 135.499 147.187C138.095 148.171 140.691 148.933 143.287 149.47C145.973 150.007 148.524 150.409 150.941 150.678C153.448 150.946 155.596 151.081 157.387 151.081C159.535 151.081 162.086 150.946 165.04 150.678C167.994 150.32 170.948 149.828 173.902 149.201C176.856 148.485 179.632 147.545 182.228 146.381C184.823 145.217 186.883 143.74 188.404 141.95C189.031 141.234 189.479 140.607 189.747 140.07C190.016 139.444 190.284 138.861 190.553 138.324L191.627 136.444C192.075 135.818 192.746 135.147 193.642 134.431C195.7 132.73 197.267 130.85 198.341 128.791C199.505 126.732 200.355 124.584 200.893 122.346C201.43 120.108 201.742 117.78 201.832 115.363C201.922 112.946 201.967 110.484 201.967 107.978C201.967 107.44 201.922 106.501 201.832 105.158C201.832 103.816 201.742 102.472 201.563 101.13C201.384 99.6979 201.071 98.4442 200.624 97.3701C200.266 96.2959 199.684 95.7588 198.878 95.7588ZM495.985 41.5508C485.877 41.5508 476.656 43.8562 468.321 48.4668C460.164 53.0775 453.602 59.4618 448.637 67.6191C443.672 75.5991 441.012 84.6431 440.657 94.751H550.781C550.427 84.643 547.766 75.5991 542.801 67.6191C538.013 59.4619 531.452 53.0774 523.117 48.4668C514.96 43.8562 505.916 41.5508 495.985 41.5508Z" fill="black"/>
</svg>
