<svg width="9" height="11" viewBox="0 0 9 11" fill="none" xmlns="http://www.w3.org/2000/svg">
<path fill-rule="evenodd" clip-rule="evenodd" d="M4.5 0C2.9467 0 1.6875 1.17259 1.6875 2.61905V3.66667H1.125C0.50368 3.66667 0 4.1357 0 4.71429V9.95238C0 10.531 0.50368 11 1.125 11H7.875C8.49632 11 9 10.531 9 9.95238V4.71429C9 4.1357 8.49632 3.66667 7.875 3.66667H7.3125V2.61905C7.3125 1.17259 6.0533 0 4.5 0ZM6.1875 3.66667V2.61905C6.1875 1.75117 5.43198 1.04762 4.5 1.04762C3.56802 1.04762 2.8125 1.75117 2.8125 2.61905V3.66667H6.1875Z" fill="#606367"/>
</svg>
