<svg width="20" height="20" viewBox="0 0 20 20" fill="none" xmlns="http://www.w3.org/2000/svg">
<g clip-path="url(#clip0_24_952)">
<path d="M16.0001 1.6V4.8M17.6001 3.2H14.4001M8.81366 2.2512C8.84794 2.06768 8.94532 1.90193 9.08894 1.78265C9.23256 1.66338 9.41337 1.59808 9.60006 1.59808C9.78675 1.59808 9.96756 1.66338 10.1112 1.78265C10.2548 1.90193 10.3522 2.06768 10.3865 2.2512L11.2273 6.6976C11.287 7.01372 11.4406 7.30449 11.6681 7.53198C11.8956 7.75946 12.1863 7.91308 12.5025 7.9728L16.9489 8.8136C17.1324 8.84788 17.2981 8.94526 17.4174 9.08888C17.5367 9.2325 17.602 9.41331 17.602 9.6C17.602 9.78669 17.5367 9.9675 17.4174 10.1111C17.2981 10.2547 17.1324 10.3521 16.9489 10.3864L12.5025 11.2272C12.1863 11.2869 11.8956 11.4405 11.6681 11.668C11.4406 11.8955 11.287 12.1863 11.2273 12.5024L10.3865 16.9488C10.3522 17.1323 10.2548 17.2981 10.1112 17.4173C9.96756 17.5366 9.78675 17.6019 9.60006 17.6019C9.41337 17.6019 9.23256 17.5366 9.08894 17.4173C8.94532 17.2981 8.84794 17.1323 8.81366 16.9488L7.97286 12.5024C7.91314 12.1863 7.75952 11.8955 7.53204 11.668C7.30455 11.4405 7.01378 11.2869 6.69766 11.2272L2.25126 10.3864C2.06774 10.3521 1.90199 10.2547 1.78271 10.1111C1.66344 9.9675 1.59814 9.78669 1.59814 9.6C1.59814 9.41331 1.66344 9.2325 1.78271 9.08888C1.90199 8.94526 2.06774 8.84788 2.25126 8.8136L6.69766 7.9728C7.01378 7.91308 7.30455 7.75946 7.53204 7.53198C7.75952 7.30449 7.91314 7.01372 7.97286 6.6976L8.81366 2.2512Z" stroke="white" stroke-width="1.6" stroke-linecap="round" stroke-linejoin="round"/>
<path d="M3.2001 17.6C4.08375 17.6 4.8001 16.8836 4.8001 16C4.8001 15.1163 4.08375 14.4 3.2001 14.4C2.31644 14.4 1.6001 15.1163 1.6001 16C1.6001 16.8836 2.31644 17.6 3.2001 17.6Z" stroke="white" stroke-width="1.6" stroke-linecap="round" stroke-linejoin="round"/>
</g>
<defs>
<clipPath id="clip0_24_952">
<rect width="19.2" height="19.2" fill="white"/>
</clipPath>
</defs>
</svg>
