<svg width="124" height="130" viewBox="0 0 124 130" fill="none" xmlns="http://www.w3.org/2000/svg">
<path d="M57.5989 0.284668C58.8318 -0.176808 60.3769 0.0373597 61.3167 0.140137C61.5378 0.161508 61.7292 0.175241 61.887 0.172363C62.7476 0.158138 63.9581 0.14068 65.2004 0.620605C66.3834 1.05992 68.1854 1.64943 68.967 3.15674C69.8142 4.61333 69.6753 6.76348 69.3713 7.59033C69.102 8.40445 69.0142 8.60193 68.884 9.33447C73.1412 9.70293 74.094 10.2502 80.7561 11.939C87.9193 14.0381 92.0278 16.1876 97.3879 19.8677C103.292 22.9893 116.542 38.2327 118.991 45.2554C122.316 51.7747 123.6 60.1387 123.776 65.0679C123.858 66.6202 123.848 67.8233 123.816 68.7603C123.801 69.1539 123.763 69.3378 123.726 69.3394C123.68 69.3375 123.636 69.0536 123.623 68.5493C123.564 66.1084 123.279 62.4251 122.281 58.231C120.103 50.5447 120.445 49.3808 115.123 39.9478C109.193 30.9317 104.454 26.1295 93.8411 19.2524C82.8547 13.3989 79.6419 12.3026 62.5374 10.978C62.3099 10.9721 62.0798 10.9672 61.8479 10.9634C59.5179 11.0799 57.4537 11.2109 55.593 11.3706C55.4568 11.6928 55.3486 11.8237 55.3352 11.686V11.5483C55.3052 11.4705 55.0913 11.818 55.0774 11.7476C55.068 11.6676 55.2378 11.4062 54.9573 11.5015C54.6687 11.5856 54.5592 11.5602 54.4758 11.5601C54.4437 11.5578 54.4424 11.5205 54.4456 11.4741C43.0458 12.5814 39.4486 15.0241 27.0325 22.8267C11.9245 32.6901 2.45386 54.5511 2.62622 65.3091C2.53986 66.607 2.49604 67.9352 2.5022 69.3394C2.44655 79.4424 5.71072 92.2717 13.6233 103.053C22.2816 115.587 39.6266 125.707 56.3723 127.221C58.3261 127.44 60.3932 127.576 62.5374 127.602C78.8048 128.452 97.2734 119.059 104.16 112.187C112.129 104.589 113.85 102.2 118.438 92.6333C120.941 87.0471 123.124 78.8188 123.554 71.6646C123.744 68.0673 123.94 68.8806 123.873 72.52C123.7 77.8641 122.641 82.1465 122.107 84.8481C120.924 90.2294 120.269 92.6244 116.686 98.6323C112.923 104.508 111.098 107.298 108.278 110.269C105.047 112.668 106.383 114.61 88.0208 124.276C77.8111 128.827 69.1714 129.741 62.5374 129.83C56.776 129.864 52.3804 129.203 48.801 128.462C40.9823 127.224 25.5355 120.092 16.8137 110.453C8.05471 102.811 -0.848007 81.7547 0.0646973 69.3394C0.0522835 67.7759 0.0973454 66.3981 0.162354 65.1948C1.16194 54.669 1.81175 54.6595 4.90845 46.7896C8.44642 39.1486 11.3642 32.7894 18.9954 25.5933C26.9711 18.9017 28.537 18.2011 39.3127 13.3608C44.3947 11.2836 49.7555 10.1216 54.5471 9.55225C54.4413 9.40853 54.2921 9.2287 54.092 9.02393C53.6088 8.49988 53.9067 8.34448 53.6252 7.51807C53.3789 6.68234 53.037 6.05795 53.4954 5.00928C54.0061 4.08362 53.3284 3.26679 54.8645 2.35596C56.3785 1.73443 56.071 0.930581 57.5989 0.284668ZM62.5374 17.2173C64.3579 17.2255 65.8843 17.3048 67.051 17.3628C71.597 17.7154 72.0531 18.1092 78.2766 19.7183C84.4549 21.567 87.9886 23.4378 92.6213 26.6079C97.7175 29.2972 109.176 42.473 111.197 48.5708C113.96 54.2306 115.179 61.3907 115.378 65.6509C115.461 66.9904 115.47 68.0287 115.462 68.8384C115.458 69.1801 115.443 69.3383 115.429 69.3384C115.412 69.3323 115.396 69.0876 115.388 68.6548C115.348 66.5409 115.137 63.3511 114.331 59.6997C112.544 53.001 112.711 52.0291 108.127 43.8345C103.013 35.9975 98.9087 31.7929 89.6672 25.8921C80.1287 20.8617 77.3487 19.8633 62.5374 18.8022C62.3404 18.798 62.1406 18.795 61.9397 18.7925C46.5832 19.606 44.5971 21.105 31.9045 29.1851C18.9261 37.7649 10.7598 56.5812 10.9065 65.8638C10.8331 66.983 10.7958 68.1277 10.802 69.3384C10.7624 78.0511 13.5651 89.103 20.3538 98.4312C27.7884 109.269 42.7272 118.059 57.2043 119.441C58.8937 119.637 60.6819 119.763 62.5374 119.792C76.6125 120.587 92.6421 112.462 98.594 106.488C105.484 99.8845 106.949 97.8108 110.973 89.5396C113.171 84.7104 115.073 77.5549 115.34 71.353C115.452 68.2356 115.535 68.946 115.448 72.0845C115.256 76.6922 114.383 80.3947 113.853 82.7056C112.699 87.3046 112.126 89.3329 109.138 94.5581C105.981 99.6728 104.306 102.002 101.912 104.587C99.1578 106.682 100.36 108.394 84.5344 116.787C75.7348 120.747 68.2734 121.573 62.5374 121.672C57.5556 121.723 53.7498 121.166 50.6497 120.537C43.8773 119.496 30.4904 113.335 22.9182 104.991C15.3103 98.3819 7.58414 80.1118 8.3645 69.3384C8.35207 67.9815 8.38953 66.7863 8.4436 65.7417C9.29068 56.6029 9.90273 56.6012 12.6106 49.7886C15.6959 43.1786 18.145 37.6074 24.7893 31.3843C31.7255 25.604 33.0992 25.0272 42.4329 20.8481C49.5411 17.958 57.2727 17.1486 62.5374 17.2173ZM61.5901 106.576C61.7077 106.502 61.8721 106.519 61.9504 106.593C62.0638 106.701 61.9885 106.79 62.1926 106.846C62.6009 106.958 62.7581 107.005 62.5208 107.146C62.2829 107.287 62.8228 107.353 62.761 107.435C62.6987 107.517 62.3798 107.516 62.6252 107.933C62.8708 108.35 62.9344 108.58 62.9934 108.738C63.0516 108.896 62.7754 109.227 62.8752 109.484C62.9747 109.742 62.8837 110.265 63.0471 110.476C63.21 110.687 62.8529 110.688 62.6536 110.859C62.4559 111.029 63.3357 111.164 63.2112 111.372C63.0862 111.579 62.6197 111.611 62.7249 111.849C62.8289 112.087 62.5105 112.325 62.7024 112.431C62.8926 112.537 62.3137 112.548 62.4426 112.699C62.5712 112.849 62.4954 112.941 62.3069 113.073C62.118 113.204 61.9567 113.609 62.1887 113.756C62.4192 113.903 62.0175 114.072 61.9221 114.172C61.8925 114.204 61.8519 114.229 61.8098 114.248C61.7919 114.256 61.754 114.259 61.717 114.259C61.6715 114.259 61.6261 114.253 61.6194 114.243C61.591 114.193 61.5158 114.118 61.3489 114.03C61.0369 113.865 61.3807 113.846 61.2209 113.624C61.0605 113.401 60.7402 113.267 60.9475 113.004C61.1548 112.742 60.2874 112.682 60.7786 112.312C61.27 111.942 60.3636 111.902 60.2424 111.534C60.1224 111.165 60.6222 110.699 60.5813 110.477C60.5397 110.255 60.4343 109.956 60.554 109.641C60.6734 109.326 60.3717 108.937 60.5852 108.589C60.7989 108.241 61.0684 107.749 61.2493 107.522C61.4299 107.295 61.4707 107.239 61.3606 107.021C61.2971 106.895 61.3566 106.722 61.5901 106.576ZM43.1125 101.369C43.2519 101.37 43.3804 101.475 43.4045 101.581C43.4395 101.735 43.3262 101.77 43.4661 101.929C43.7455 102.248 43.8502 102.374 43.5735 102.364C43.2964 102.354 43.7091 102.706 43.6135 102.743C43.5156 102.779 43.2492 102.603 43.2219 103.093C43.1947 103.583 43.1192 103.813 43.0803 103.98C43.0412 104.147 42.6261 104.277 42.5657 104.551C42.5092 104.808 42.1808 105.173 42.1555 105.44V105.538C42.1371 105.738 41.859 105.569 41.6135 105.603C41.3521 105.64 42.0133 106.236 41.7942 106.345C41.5739 106.454 41.1652 106.225 41.1204 106.486C41.0753 106.746 40.675 106.775 40.7766 106.97C40.8772 107.165 40.3858 106.858 40.4094 107.056C40.4332 107.255 40.3183 107.291 40.0872 107.3C39.8556 107.309 39.4957 107.567 39.6077 107.819C39.7187 108.07 39.289 107.994 39.1526 108.028C39.1104 108.038 39.0626 108.037 39.0168 108.03C38.9974 108.027 38.9638 108.009 38.9329 107.989C38.8948 107.964 38.8598 107.935 38.8596 107.922C38.8639 107.864 38.8435 107.759 38.7532 107.592C38.5841 107.281 38.8818 107.453 38.8723 107.176C38.8624 106.898 38.6688 106.609 38.9885 106.499C39.3078 106.388 38.6161 105.862 39.2336 105.816C39.8509 105.769 39.1148 105.239 39.219 104.859C39.3237 104.478 40.0025 104.355 40.092 104.143C40.1813 103.931 40.2594 103.619 40.5354 103.416C40.8113 103.212 40.7751 102.714 41.1477 102.535C41.5205 102.355 42.0209 102.084 42.2991 101.989C42.5769 101.894 42.6426 101.869 42.6721 101.623C42.6891 101.481 42.8357 101.366 43.1125 101.369ZM81.0891 101.422C81.4948 101.3 81.6532 101.257 81.5276 101.503C81.402 101.75 81.8946 101.519 81.886 101.623C81.876 101.726 81.6085 101.894 82.0393 102.119C82.4711 102.344 82.6477 102.506 82.7825 102.609C82.9166 102.713 82.8599 103.142 83.0823 103.308C83.305 103.475 83.5093 103.97 83.761 104.063C84.012 104.156 83.7112 104.347 83.634 104.598C83.5577 104.849 84.3741 104.495 84.3811 104.738C84.3869 104.981 84.0082 105.258 84.2249 105.405C84.4412 105.552 84.2994 105.926 84.5188 105.914C84.7373 105.902 84.2529 106.22 84.4426 106.28C84.6322 106.339 84.6176 106.459 84.5286 106.671C84.4397 106.884 84.5201 107.315 84.7952 107.317C85.0699 107.319 84.8198 107.676 84.7932 107.813C84.7849 107.855 84.7641 107.898 84.7385 107.937C84.7276 107.953 84.6976 107.977 84.6663 107.997L84.6096 108.027C84.5938 108.034 84.581 108.037 84.5754 108.035C84.5246 108.007 84.4207 107.983 84.2317 107.997C83.8791 108.022 84.1602 107.823 83.9055 107.718C83.6503 107.614 83.3075 107.67 83.342 107.336C83.3739 107.024 82.7029 107.365 82.7981 106.933L82.8567 106.74C82.9483 106.312 82.237 106.692 81.9553 106.458C81.6561 106.208 81.8289 105.545 81.675 105.377C81.5206 105.21 81.2713 105.011 81.2034 104.679C81.1355 104.347 80.6705 104.175 80.6643 103.765C80.6584 103.355 80.6226 102.792 80.6536 102.501C80.6846 102.212 80.6892 102.143 80.4788 102.015C80.3576 101.942 80.3158 101.762 80.4348 101.513C80.4948 101.388 80.6422 101.315 80.7483 101.336C80.9026 101.368 80.8864 101.484 81.0891 101.422ZM95.385 87.022C95.7015 86.7359 95.8276 86.6283 95.8362 86.9116C95.845 87.1944 96.187 86.7709 96.2317 86.8706C96.2757 86.9708 96.1105 87.2428 96.6282 87.27C97.1464 87.2972 97.3938 87.3732 97.5725 87.4126C97.7511 87.4526 97.9173 87.876 98.2102 87.937C98.5034 87.9983 98.9472 88.3748 99.2297 88.355C99.5114 88.3357 99.3278 88.6404 99.384 88.9077C99.4409 89.1742 100.023 88.4985 100.154 88.7231C100.283 88.9481 100.07 89.3653 100.348 89.4106C100.625 89.4565 100.683 89.8651 100.882 89.7612C101.081 89.6575 100.79 90.16 100.998 90.1353C101.206 90.1108 101.252 90.2274 101.278 90.4634C101.303 90.6997 101.599 91.0673 101.857 90.9526C102.114 90.8385 102.064 91.2772 102.109 91.4165C102.123 91.4597 102.125 91.5093 102.12 91.5562C102.118 91.5761 102.102 91.6106 102.083 91.6421C102.06 91.6809 102.031 91.716 102.018 91.7163C101.956 91.712 101.847 91.7329 101.677 91.8257C101.361 91.9987 101.522 91.6944 101.231 91.7046C100.939 91.7151 100.647 91.9122 100.509 91.5864C100.38 91.2807 99.9258 91.8832 99.7942 91.4399L99.7512 91.2349C99.6188 90.7969 99.1485 91.4529 98.7659 91.354C98.358 91.2476 98.181 90.555 97.9514 90.4634C97.7217 90.3726 97.3867 90.2933 97.1536 90.0122C96.9205 89.7308 96.399 89.7673 96.1838 89.3872C95.9689 89.007 95.6487 88.4963 95.5295 88.2124C95.4106 87.9288 95.3792 87.8624 95.1174 87.8325C94.9668 87.8154 94.8355 87.665 94.8196 87.3823C94.8119 87.2403 94.912 87.1105 95.0217 87.0854C95.1824 87.0493 95.2269 87.1647 95.385 87.022ZM28.5452 87.1313C28.5602 86.8504 28.9259 87.0972 29.0696 87.1216C29.1141 87.1291 29.1589 87.1501 29.1985 87.1753C29.2153 87.1862 29.2388 87.2162 29.2581 87.2476L29.2874 87.3042C29.2939 87.3204 29.297 87.3337 29.2942 87.3394C29.2626 87.392 29.232 87.499 29.2375 87.6919C29.2477 88.0508 29.0504 87.7679 28.928 88.0308C28.8056 88.294 28.849 88.644 28.4983 88.6167C28.147 88.589 28.544 89.3621 27.9446 89.1538C27.3448 88.9453 27.7836 89.7407 27.5051 90.0532C27.2267 90.3656 26.5334 90.2032 26.3489 90.3647C26.1647 90.5264 25.9434 90.7866 25.5891 90.8638C25.2346 90.9408 25.0317 91.4192 24.5979 91.4351C24.164 91.4507 23.5672 91.5 23.262 91.4751C22.957 91.4501 22.8842 91.4472 22.7395 91.6655C22.6563 91.7909 22.4645 91.8386 22.2073 91.7231C22.0778 91.6649 22.0071 91.5156 22.0344 91.4067C22.0749 91.2477 22.1967 91.2617 22.1418 91.0562C22.0314 90.6444 21.9936 90.4834 22.2483 90.606C22.5026 90.728 22.2823 90.2304 22.3909 90.2368C22.4995 90.2441 22.6654 90.5147 22.9231 90.0688C23.1812 89.6222 23.3602 89.4385 23.4758 89.2983C23.5914 89.1582 24.0423 89.2066 24.2288 88.9751C24.4151 88.7436 24.9475 88.5235 25.0579 88.2642C25.1678 88.0049 25.3553 88.3081 25.6174 88.3813C25.879 88.4534 25.5438 87.6273 25.801 87.6147C26.0586 87.6031 26.3327 87.9836 26.4983 87.7593C26.6638 87.5343 27.0519 87.6704 27.05 87.4468C27.0478 87.2229 27.3617 87.7112 27.4338 87.5161C27.5058 87.3206 27.6301 87.3333 27.8508 87.4194C28.0718 87.5051 28.5299 87.4122 28.5452 87.1313ZM17.9299 67.6138C18.3025 67.4938 18.7728 67.9932 18.9973 67.9517C19.2219 67.9101 19.5238 67.8048 19.842 67.9243C20.1604 68.0437 20.5541 67.742 20.9055 67.9556C21.2571 68.1692 21.7541 68.4398 21.9836 68.6206C22.2128 68.8011 22.2696 68.8414 22.4905 68.731C22.6174 68.6678 22.7921 68.7282 22.9397 68.9614C23.0137 69.0789 22.9977 69.2425 22.9231 69.3208C22.8136 69.4353 22.7237 69.3594 22.6672 69.564C22.5547 69.9723 22.5066 70.1284 22.3645 69.8911C22.2224 69.6536 22.1543 70.1922 22.0715 70.1323C21.9886 70.0701 21.9901 69.7512 21.5686 69.9966C21.1469 70.2423 20.9149 70.3048 20.7551 70.3638C20.5954 70.4226 20.2615 70.1459 20.0012 70.2456C19.7408 70.3454 19.2117 70.255 18.9983 70.4185C18.7854 70.5812 18.7845 70.2243 18.6125 70.0249C18.4402 69.8256 18.3039 70.7058 18.094 70.5825C17.8839 70.4579 17.852 69.9904 17.6116 70.0952C17.3709 70.2004 17.1299 69.8808 17.0227 70.0728C16.9156 70.2646 16.9043 69.6843 16.7522 69.813C16.6001 69.9419 16.5082 69.8658 16.3752 69.6772C16.2422 69.4884 15.8326 69.3272 15.6838 69.5591C15.5354 69.7906 15.3659 69.3897 15.2639 69.2935C15.2322 69.2638 15.2069 69.2224 15.1877 69.1802C15.1798 69.1621 15.176 69.1241 15.176 69.0874C15.1761 69.0414 15.1822 68.9965 15.1926 68.9907C15.2433 68.9623 15.3192 68.8872 15.4084 68.7202C15.5752 68.4081 15.5934 68.7527 15.8186 68.5923C16.0435 68.4318 16.1788 68.1116 16.4436 68.3188C16.7082 68.5249 16.77 67.6583 17.1438 68.1499C17.5175 68.6407 17.5574 67.7344 17.9299 67.6138ZM105.813 67.6069C106.042 67.7322 106.077 68.1993 106.34 68.0942C106.603 67.9895 106.866 68.3081 106.984 68.1167C107.101 67.9246 107.113 68.5049 107.28 68.3765C107.446 68.2475 107.547 68.3234 107.693 68.5122C107.839 68.7008 108.286 68.8621 108.448 68.6304C108.611 68.3985 108.796 68.8002 108.907 68.896C108.942 68.9257 108.97 68.9671 108.99 69.0093C108.999 69.0274 109.004 69.0645 109.004 69.1011C109.004 69.1469 108.997 69.1926 108.986 69.1987C108.93 69.2271 108.848 69.3022 108.75 69.4692C108.568 69.7812 108.547 69.4369 108.301 69.5972C108.055 69.7576 107.907 70.0773 107.617 69.8706C107.328 69.6633 107.261 70.5304 106.852 70.0396C106.443 69.548 106.4 70.4543 105.992 70.5757C105.585 70.6963 105.07 70.197 104.824 70.2378C104.579 70.2793 104.248 70.3847 103.9 70.2651C103.552 70.1457 103.122 70.4467 102.738 70.2339C102.353 70.0203 101.809 69.7497 101.558 69.5688C101.307 69.3882 101.246 69.3482 101.004 69.4585C100.865 69.522 100.674 69.4613 100.512 69.228C100.431 69.1105 100.449 68.9471 100.531 68.8687C100.65 68.7542 100.749 68.8298 100.811 68.6255C100.934 68.2169 100.986 68.0604 101.142 68.2983C101.297 68.5345 101.371 67.997 101.461 68.0571C101.552 68.12 101.551 68.4381 102.012 68.1929C102.473 67.9472 102.727 67.8847 102.902 67.8257C103.076 67.7672 103.441 68.0436 103.726 67.9438C104.011 67.8441 104.589 67.9345 104.823 67.771C105.056 67.6076 105.057 67.9651 105.245 68.1646C105.434 68.3623 105.583 67.4824 105.813 67.6069ZM22.4993 45.3022C22.8126 45.1274 22.6519 45.4324 22.9407 45.4194C23.2297 45.4062 23.5197 45.207 23.6555 45.5308C23.7833 45.8327 24.2333 45.2298 24.3625 45.6694L24.4055 45.8745C24.536 46.3079 25.0026 45.6509 25.3811 45.7466C25.7847 45.8493 25.9585 46.538 26.1858 46.6265C26.4131 46.7148 26.744 46.791 26.9739 47.0688C27.2042 47.3469 27.7209 47.3061 27.9329 47.6831C28.1448 48.0602 28.4612 48.5656 28.5784 48.8472C28.6954 49.1285 28.7261 49.1948 28.9856 49.2222C29.1345 49.2383 29.2636 49.3863 29.2786 49.6675C29.2859 49.809 29.1863 49.9404 29.0774 49.9663C28.9181 50.0038 28.8752 49.8888 28.718 50.0327C28.4038 50.3206 28.2785 50.428 28.2708 50.146C28.2629 49.8645 27.924 50.2881 27.8792 50.1909C27.8352 50.0918 28.0004 49.8189 27.4875 49.7964C26.9747 49.7741 26.7298 49.7003 26.553 49.6626C26.3762 49.625 26.2121 49.2044 25.9221 49.146C25.6503 49.0913 25.2487 48.7628 24.969 48.7397H24.8674C24.6563 48.7238 24.8144 48.4384 24.7629 48.189C24.7073 47.9244 24.1294 48.6017 24.0002 48.3813C23.872 48.1588 24.0834 47.7413 23.8098 47.6978C23.535 47.655 23.4786 47.2481 23.2815 47.353C23.0842 47.4585 23.3727 46.955 23.1672 46.981C22.9614 47.0074 22.9154 46.8916 22.8909 46.6567C22.8663 46.4215 22.5746 46.0579 22.3186 46.1743C22.0637 46.2899 22.1153 45.8533 22.0715 45.7144C22.0578 45.6715 22.0556 45.6224 22.0598 45.5757C22.0616 45.5558 22.0778 45.5215 22.0969 45.4897C22.1205 45.4506 22.1486 45.4155 22.1614 45.4155C22.2225 45.4191 22.3312 45.3961 22.4993 45.3022ZM101.378 45.3765C101.397 45.0953 101.76 45.3478 101.904 45.3735C101.948 45.3816 101.992 45.4025 102.031 45.4282C102.048 45.4394 102.071 45.4699 102.09 45.5015C102.114 45.541 102.132 45.5835 102.125 45.5942C102.093 45.6466 102.061 45.7528 102.064 45.9458C102.069 46.305 101.875 46.0198 101.748 46.2817C101.622 46.5437 101.66 46.8932 101.309 46.8618C100.979 46.8319 101.298 47.5148 100.847 47.4224L100.646 47.3638C100.198 47.2746 100.558 47.9984 100.292 48.2886C100.008 48.5979 99.3153 48.4268 99.1282 48.5864C98.9412 48.7461 98.7158 49.0036 98.3596 49.0767C98.0032 49.1496 97.7927 49.6265 97.3577 49.6372C96.9226 49.6477 96.3233 49.6902 96.0178 49.6616C95.7128 49.633 95.6397 49.6285 95.4915 49.8452C95.4062 49.9698 95.2135 50.0148 94.9573 49.896C94.8282 49.8361 94.7601 49.6863 94.7893 49.5776C94.8323 49.4192 94.9537 49.4344 94.9016 49.228C94.797 48.8149 94.7617 48.6533 95.0149 48.7788C95.268 48.9039 95.0546 48.4039 95.1633 48.4116C95.2721 48.4203 95.4346 48.6926 95.6995 48.2495C95.9648 47.8056 96.147 47.6237 96.2649 47.4849C96.3756 47.3548 96.778 47.3932 96.9846 47.2095L97.1096 47.0845C97.3414 46.8865 97.7651 46.695 97.8655 46.4692C97.9796 46.2109 98.1631 46.5171 98.425 46.5933C98.6861 46.6683 98.3619 45.8366 98.6204 45.8276C98.8788 45.8191 99.1474 46.2031 99.3167 45.98C99.4859 45.757 99.8729 45.8981 99.8743 45.6743C99.8754 45.4505 100.183 45.9427 100.258 45.7485C100.333 45.5537 100.457 45.5679 100.677 45.6567C100.897 45.7452 101.359 45.6575 101.378 45.3765ZM39.5081 29.3159C39.9122 29.1873 40.07 29.1418 39.9495 29.3921C39.8296 29.6417 40.3168 29.4033 40.3118 29.5063C40.305 29.6105 40.0387 29.7842 40.4768 30.0054C40.915 30.2266 41.0951 30.3883 41.2327 30.4907C41.3697 30.5937 41.3232 31.026 41.55 31.1909C41.7773 31.3562 41.9937 31.8525 42.2483 31.9429C42.5019 32.0334 42.2038 32.2294 42.1321 32.4839C42.0609 32.7382 42.8733 32.3712 42.885 32.6167C42.8959 32.8621 42.5237 33.1442 42.7444 33.2896C42.9645 33.4353 42.8304 33.814 43.05 33.7993C43.2691 33.7849 42.7908 34.1114 42.9817 34.1694C43.1731 34.2272 43.1618 34.3467 43.0774 34.562C42.9929 34.7778 43.0834 35.2111 43.3596 35.2095C43.635 35.2084 43.392 35.5722 43.3684 35.7104C43.361 35.7531 43.3412 35.7964 43.3167 35.8354C43.3061 35.8521 43.2763 35.8767 43.2454 35.897C43.2073 35.9219 43.1658 35.941 43.1545 35.936C43.1028 35.9089 42.9984 35.8858 42.8098 35.9019C42.4567 35.9321 42.7337 35.7287 42.4758 35.6265C42.2175 35.5245 41.8748 35.5849 41.9016 35.2485C41.9289 34.9116 41.1699 35.3345 41.3743 34.7505C41.5792 34.1659 40.7985 34.6281 40.4915 34.3804C40.1851 34.132 40.343 33.4618 40.1848 33.2944C40.0261 33.1277 39.7712 32.9302 39.6956 32.5962C39.6198 32.2622 39.1505 32.0954 39.135 31.6821C39.1197 31.2686 39.0714 30.7015 39.0959 30.4087C39.1205 30.1163 39.1232 30.0461 38.9094 29.9204C38.7861 29.848 38.739 29.6671 38.8528 29.4146C38.9101 29.2876 39.0565 29.2127 39.1633 29.2329C39.3192 29.2627 39.3059 29.3803 39.5081 29.3159ZM84.5334 29.271C84.6723 29.271 84.8018 29.3723 84.8284 29.4771C84.8668 29.63 84.7553 29.6657 84.8977 29.8218C85.1833 30.1342 85.2909 30.2589 85.0149 30.2524C84.7381 30.2457 85.1587 30.5902 85.0627 30.6274C84.9659 30.6641 84.697 30.4933 84.6809 30.98C84.6647 31.4667 84.5947 31.6956 84.5598 31.8618C84.5243 32.0279 84.1135 32.1624 84.0598 32.4351C84.0057 32.7079 83.6472 33.1055 83.6721 33.3726C83.6969 33.639 83.3951 33.4501 83.135 33.4888C82.8747 33.528 83.5479 34.113 83.3313 34.2241C83.1142 34.3351 82.7012 34.1124 82.6624 34.3716C82.6228 34.63 82.2257 34.6633 82.3313 34.856C82.4354 35.0473 81.9387 34.7489 81.967 34.9458C81.9952 35.1425 81.8818 35.1802 81.6516 35.1919C81.4212 35.2037 81.068 35.4625 81.1848 35.7114C81.3014 35.9598 80.8719 35.8894 80.7366 35.9243C80.6947 35.9352 80.6467 35.9346 80.6008 35.9282C80.5814 35.9255 80.5471 35.9088 80.5159 35.8892C80.4773 35.8649 80.4428 35.8359 80.4426 35.8237C80.4456 35.766 80.4222 35.6619 80.3284 35.4976C80.1529 35.1907 80.4535 35.3583 80.4377 35.0835C80.4216 34.8081 80.2222 34.5227 80.5383 34.4097C80.854 34.2965 80.1531 33.7835 80.7678 33.73C81.3813 33.6762 80.6358 33.1594 80.7307 32.7808C80.8266 32.4021 81.5006 32.2716 81.5852 32.0601C81.6694 31.8484 81.7404 31.5374 82.011 31.3325C82.2812 31.1275 82.2343 30.6344 82.6018 30.4517C82.9693 30.2689 83.4616 29.9934 83.7366 29.896C84.0113 29.7987 84.0759 29.7729 84.0999 29.5278C84.1136 29.3868 84.2574 29.2713 84.5334 29.271ZM61.5901 22.9204C61.7077 22.8469 61.8721 22.8629 61.9504 22.937C62.0643 23.0452 61.9884 23.1342 62.1926 23.1899C62.6011 23.3014 62.7583 23.35 62.5208 23.4907C62.2828 23.6316 62.8232 23.6977 62.761 23.7798C62.6984 23.8617 62.3797 23.8607 62.6252 24.2778C62.8708 24.6951 62.9344 24.9245 62.9934 25.0825C63.0511 25.2409 62.7758 25.5705 62.8752 25.8276C62.9749 26.0854 62.8836 26.6098 63.0471 26.8208C63.2097 27.0314 62.8529 27.0322 62.6536 27.2026C62.4546 27.3732 63.3358 27.5084 63.2112 27.7163C63.0861 27.9237 62.6199 27.955 62.7249 28.1929C62.8295 28.4309 62.5104 28.6699 62.7024 28.7759C62.8922 28.8815 62.3137 28.8931 62.4426 29.0435C62.571 29.1937 62.4954 29.286 62.3069 29.4175C62.118 29.5492 61.9567 29.9539 62.1887 30.1011C62.4188 30.248 62.0177 30.4153 61.9221 30.5161C61.8925 30.5474 61.852 30.5724 61.8098 30.5913C61.7919 30.5993 61.754 30.603 61.717 30.603C61.6715 30.603 61.6263 30.5974 61.6194 30.5874C61.5911 30.5373 61.516 30.4619 61.3489 30.3735C61.0372 30.2087 61.3806 30.1906 61.2209 29.9683C61.0606 29.7455 60.7404 29.6112 60.9475 29.3491C61.1548 29.087 60.2877 29.0266 60.7786 28.6567C61.27 28.2868 60.3636 28.2468 60.2424 27.8784C60.122 27.5098 60.6222 27.0442 60.5813 26.8218C60.5398 26.5995 60.4343 26.3009 60.554 25.9858C60.6736 25.6707 60.3718 25.2819 60.5852 24.9341C60.7989 24.5862 61.0684 24.094 61.2493 23.8667C61.4299 23.6398 61.4706 23.5837 61.3606 23.3657C61.2971 23.2401 61.3567 23.0667 61.5901 22.9204ZM56.6438 9.3374C56.3928 9.33605 56.2459 9.33844 56.1106 9.38428C56.3004 9.36624 56.4894 9.35264 56.677 9.33643C56.6657 9.33649 56.6546 9.3374 56.6438 9.3374ZM60.4934 2.25928C59.8828 2.09617 59.5278 3.01691 58.8928 3.02197C58.2484 3.04663 57.9896 2.62105 57.3411 3.01514C56.7311 3.39904 56.0083 3.62888 55.9465 4.00146C55.9103 4.34781 55.4112 4.02392 55.2844 4.50342C55.187 4.97158 55.0385 5.18562 54.76 5.56592C54.4408 5.92313 54.2908 7.39648 54.6555 7.85107C54.9715 8.29446 54.7582 8.94384 54.8127 9.32275C54.8147 9.33822 54.8142 9.35373 54.8157 9.36865C54.9422 9.2314 55.0837 9.20547 55.093 9.00146C55.1123 8.53925 55.1287 8.35733 55.4797 8.4585C55.827 8.56214 55.725 8.01857 55.9016 8.00928C56.0786 8.00478 56.187 8.29181 56.8684 7.76904C57.5619 7.25077 58.009 7.06594 58.3079 6.92529C58.6144 6.78153 59.3384 6.90308 59.8528 6.73584C60.3743 6.54991 61.4813 6.59728 61.9309 6.46436C62.3854 6.32226 62.3683 6.68125 62.6936 6.9126C63.0089 7.14672 63.4058 6.31099 63.8235 6.51221C64.2285 6.71588 64.1881 7.18396 64.676 7.19287C65.1693 7.2051 65.5337 7.64821 65.7864 7.52588C66.0456 7.40621 65.8902 7.96476 66.2063 7.93408C66.5296 7.90711 66.6669 8.03651 66.845 8.30225C66.9759 8.50148 67.392 8.79855 67.7346 8.88135C67.7707 8.82398 67.8178 8.76182 67.8811 8.69385C68.2333 8.29279 67.7372 7.96323 67.8342 7.72314C67.9034 7.48565 68.34 7.46554 67.9856 6.15869C67.5497 4.91454 67.0652 4.52896 66.7561 4.24072C66.4672 3.97169 65.856 3.18111 65.0266 3.00342C64.267 2.78462 62.5493 2.47006 61.8176 2.63818C61.6001 2.6815 61.4441 2.68131 61.3167 2.65381C61.0285 2.59243 60.9089 2.37793 60.4934 2.25928ZM61.8352 8.92822C61.4546 8.95433 60.9677 9.06439 60.4309 9.00342C60.1616 8.97312 59.8844 9.05832 59.5979 9.14893C60.5875 9.1084 61.5291 9.09245 62.4124 9.09912C62.1874 8.99634 61.9871 8.91613 61.8352 8.92822ZM64.8479 9.13525C64.6826 9.01202 64.5355 9.04119 64.3821 9.12256C64.5399 9.12617 64.6952 9.13101 64.8479 9.13525Z" fill="white"/>
</svg>
