<svg width="74" height="43" viewBox="0 0 74 43" fill="none" xmlns="http://www.w3.org/2000/svg">
<path d="M27.9528 22.4856C30.7867 21.1502 31.6922 18.0325 30.3028 14.8835C28.8768 12.2996 27.967 11.5933 25.4322 10.4192C24.8986 10.2056 24.3079 10.008 23.5746 9.84279C19.1577 8.73563 14.6008 10.3528 12.9727 11.5105C11.333 12.676 10.8783 12.4346 8.80244 14.4961C6.83051 16.6286 5.78961 18.0661 4.42397 20.2389C2.83146 22.3086 0.517399 30.0257 0.743868 32.9553C0.681705 35.8362 0.696864 39.1144 0.981254 41.094C1.06271 41.7025 1.13075 42.1877 1.17966 42.5625C1.20048 42.7212 1.19179 42.7989 1.16757 42.8042C1.16756 42.8042 1.16754 42.8042 1.16753 42.8042C1.1375 42.8106 1.08339 42.7044 1.03811 42.5036C0.81916 41.5312 0.510899 40.0847 0.245911 38.3416C-0.154344 35.078 -0.0348286 34.6962 0.380014 30.2802C1.01183 25.9078 1.55471 23.1238 4.31208 18.6197C7.39964 14.4888 7.56059 12.4502 14.53 9.33165C20.0903 7.67881 22.1349 7.96202 25.9853 8.99699C27.1311 9.39092 28.4907 9.9723 29.9048 11.1862C32.0961 12.9706 33.597 16.5033 32.4616 19.5911C31.4221 22.7178 28.2772 24.3847 25.7788 24.6056C23.4599 24.8689 21.7384 23.6043 20.7757 22.6637C17.3077 19.4232 15.8794 11.6985 20.4408 6.50923C22.6985 3.83314 26.2285 1.97145 29.9786 1.03047C33.3368 0.163492 36.8925 -0.163429 40.2154 0.0763584C47.3291 0.287937 56.5121 4.55878 59.9435 7.51955C63.4513 10.3734 64.2347 11.1737 66.9994 14.5265C68.5518 16.4853 70.2447 19.5617 70.9788 22.3792C71.3358 23.7962 71.1487 23.4978 70.6432 22.1353C69.8764 20.1523 69.0979 18.5845 68.4355 17.7069C67.0809 15.9796 66.5045 15.2877 64.8513 13.1087C63.1356 10.9605 61.8809 10.3949 60.6887 9.35837C59.3985 8.4808 59.876 7.69238 52.4785 4.32412C44.8936 1.37313 40.2762 1.60029 37.2745 1.65709C35.6563 1.72851 33.0882 1.91639 30.3634 2.56976C27.9866 3.12116 25.5414 4.12415 23.7645 5.49946C21.8194 6.88696 19.4189 9.92225 19.201 13.4713C18.8553 16.9909 20.5272 20.2858 21.9159 21.4792C23.7073 23.0234 24.5697 22.9834 25.5683 23.0267C26.203 22.988 26.9329 22.9238 27.9528 22.4856ZM72.4467 18.3251C72.2818 18.5617 72.8385 18.8375 72.7158 19.1362C72.593 19.4348 72.2778 19.4408 72.3012 19.8042C72.3245 20.1676 72.0668 20.4945 72.1732 20.6688C72.2797 20.8432 71.8934 20.8097 71.9495 21.0448C72.0056 21.28 71.9377 21.4092 71.7873 21.5888C71.6369 21.7685 71.4518 22.3565 71.5766 22.5954C71.7014 22.8343 71.4027 23.0492 71.32 23.1911C71.2942 23.2353 71.2625 23.2686 71.2309 23.2931C71.2174 23.3035 71.1919 23.3058 71.1674 23.3026C71.1673 23.3026 71.1673 23.3026 71.1673 23.3026C71.1368 23.2986 71.1079 23.2862 71.106 23.2703C71.0971 23.1933 71.0622 23.0754 70.9687 22.9293C70.7944 22.6569 71.0259 22.6598 70.9631 22.3145C70.9003 21.9692 70.7143 21.7424 70.9023 21.3703C71.0902 20.9981 70.5282 20.8337 70.9252 20.3256C71.3221 19.8175 70.7297 19.6812 70.7215 19.1222C70.7133 18.5632 71.1346 17.9138 71.1503 17.5795C71.166 17.2452 71.1541 16.7919 71.2944 16.3334C71.4348 15.8749 71.3104 15.27 71.5192 14.7709C71.728 14.2718 72.0019 13.5634 72.1655 13.241C72.3292 12.9186 72.3669 12.8397 72.3363 12.5049C72.3187 12.3124 72.3919 12.0599 72.5747 11.8624C72.6667 11.7631 72.7717 11.802 72.8091 11.919C72.8638 12.0901 72.796 12.2158 72.9204 12.3165C73.169 12.5177 73.2635 12.6018 73.0789 12.7908C72.8942 12.9798 73.2389 13.1251 73.1818 13.2419C73.1247 13.3587 72.9141 13.3291 72.9955 13.9713C73.077 14.6136 73.074 14.9594 73.0823 15.1997C73.0907 15.4399 72.8436 15.9071 72.8596 16.299C72.8757 16.6909 72.7135 17.4622 72.7807 17.7904C72.8478 18.1186 72.6117 18.0885 72.4467 18.3251ZM67.7908 20.1574C67.9017 20.3985 68.3884 20.0225 68.5691 20.2518C68.7499 20.4811 68.6043 20.76 68.9067 20.8875C69.209 21.0151 69.348 21.3743 69.5385 21.3519C69.729 21.3295 69.5179 21.6547 69.7331 21.7013C69.9483 21.7479 70.0194 21.86 70.0916 22.0651C70.1638 22.2702 70.5467 22.6721 70.7977 22.6599C71.0487 22.6477 71.0784 22.9973 71.1527 23.1276C71.1758 23.1682 71.1873 23.2096 71.1919 23.2474C71.1938 23.2634 71.1835 23.2867 71.1692 23.3069C71.1692 23.3069 71.1692 23.3069 71.1692 23.3069C71.1515 23.3321 71.1277 23.3523 71.1141 23.3475C71.0481 23.324 70.937 23.3066 70.7753 23.3291C70.4739 23.371 70.5867 23.1691 70.28 23.0836C69.9733 22.998 69.7028 23.0687 69.4943 22.7523C69.2858 22.4359 68.8859 22.8618 68.6681 22.3067C68.4502 21.7516 68.0585 22.2157 67.6066 21.9952C67.1547 21.7747 66.8353 21.1406 66.5749 20.9907C66.3145 20.8407 65.9456 20.6666 65.6451 20.3567C65.3446 20.0469 64.8006 19.9096 64.5003 19.5232C64.1999 19.1368 63.7629 18.608 63.5826 18.3331C63.4023 18.0583 63.3571 17.9931 63.0742 17.8835C62.9115 17.8205 62.7441 17.6535 62.6731 17.4127C62.6374 17.2916 62.7187 17.2153 62.8302 17.2302C62.9934 17.2519 63.0618 17.3626 63.2019 17.2945C63.4817 17.1584 63.5942 17.1098 63.6575 17.3487C63.7209 17.5876 64.0018 17.3446 64.0681 17.4422C64.1344 17.5399 64.0103 17.7126 64.5638 17.9027C65.1173 18.0929 65.393 18.2363 65.5895 18.3269C65.786 18.4175 66.0425 18.8244 66.3642 18.97C66.6859 19.1155 67.2266 19.5719 67.5217 19.6467C67.8167 19.7215 67.6799 19.9163 67.7908 20.1574Z" fill="black"/>
</svg>
