<svg width="75" height="64" viewBox="0 0 75 64" fill="none" xmlns="http://www.w3.org/2000/svg">
<path d="M6.38086 1.75429C6.13372 2.71172 5.76945 3.92666 5.4905 4.82922C5.40042 5.12227 5.38856 4.96021 5.32336 5.16565C5.1956 5.56953 5.12255 5.95454 4.99692 6.34721C4.95508 6.47725 4.91565 6.29205 4.87367 6.42888C4.64462 7.17852 4.49065 7.8923 4.29501 8.63665C3.30622 12.4273 2.55327 16.0784 2.02479 19.9988C1.85749 21.23 1.62237 22.8519 1.5763 24.1521C1.57072 24.3045 1.64998 24.2183 1.65423 24.2477C1.71996 24.7052 1.5805 24.546 1.54494 24.8386C1.40221 26.0563 1.37101 27.3966 1.4214 28.5227C1.44441 29.0269 1.57885 28.5192 1.50984 29.0258C1.50531 29.061 1.42336 28.9363 1.41905 29.0737C1.40867 29.3864 1.44861 29.9672 1.45648 30.2012C1.47057 30.6532 1.4766 30.727 1.50799 31.1463C1.55001 31.7102 1.58761 32.4586 1.6881 33.0723C1.70993 33.2047 1.76563 33.0185 1.80795 33.2278C1.84944 33.4382 1.92708 33.9891 1.94027 34.1744C1.95259 34.3606 1.87735 34.2933 1.86861 34.3281C1.79489 34.6316 2.09019 35.26 2.11264 35.3392C2.49363 36.8121 2.78126 38.1366 3.29335 39.4464C3.70473 40.4946 4.22503 41.4888 4.76272 42.4002C5.3897 43.4582 5.9754 44.332 6.77508 45.2242C6.85972 45.3178 6.83141 45.145 6.93486 45.2584C8.03871 46.4622 9.27108 47.5059 10.6272 48.4519C10.7598 48.5442 10.5395 48.502 10.67 48.5985C11.4533 49.1955 12.8635 50.0901 13.5422 49.9843C14.1447 50.2713 14.9601 50.6045 15.4843 50.8626C15.8373 51.034 15.4483 50.9972 15.9181 51.1144C16.0244 51.1404 15.9143 51.0211 16.0719 51.0655C16.7251 51.2494 17.5018 51.497 18.1406 51.6144C18.2754 51.6395 18.2563 51.5616 18.2969 51.5586C18.6357 51.5372 19.1339 51.8246 19.2514 51.862C20.145 52.1489 20.8114 52.2306 21.6452 52.3625C21.8408 52.3928 21.6238 52.2637 21.8124 52.2893C22.7954 52.4233 23.8372 52.5501 24.779 52.6735C24.9925 52.7015 24.7884 52.7653 24.8903 52.7827C25.3417 52.8577 25.4549 52.7126 25.8948 52.7756C25.9879 52.7885 25.9307 52.8543 25.9473 52.863C26.2074 52.9998 26.453 52.8439 26.5226 52.8439C27.3864 52.839 27.8954 53.034 28.7342 53.0275C28.834 53.0263 28.6109 52.9343 28.8913 52.9361C30.8211 52.9463 32.691 52.926 34.5738 52.8977C34.8543 52.8936 34.658 52.9701 34.676 52.9773C34.9706 53.0886 35.1489 52.9075 35.2404 52.8957C35.9638 52.8065 36.6669 52.8986 37.1593 52.6567C40.2738 52.4818 43.3199 51.9982 46.4567 51.713C46.497 51.7091 46.4378 51.8027 46.5181 51.7945C47.4726 51.6976 47.2539 51.5985 47.8427 51.345C47.9894 51.2815 48.4891 51.3959 48.5334 51.4028C48.6936 51.4294 48.5561 51.578 48.6086 51.5797C49.0432 51.5888 48.9069 51.1937 49.4787 51.0982C49.4967 51.0958 49.434 51.1833 49.4833 51.1827C49.6366 51.181 49.7802 51.1262 49.9314 51.1269C50.278 51.1291 50.432 51.3061 50.9308 51.1006C50.9941 51.074 50.8525 50.862 51.3754 50.7804C51.5891 50.7476 52.4549 50.5866 52.7093 50.5545C52.9598 50.5236 52.8034 50.6291 52.8216 50.6291C53.509 50.6026 53.2631 50.6902 53.6273 50.7718C53.9926 50.8523 53.8337 50.5256 53.9642 50.4609C54.0947 50.3965 54.6075 50.3814 54.736 50.3854C54.8641 50.3897 54.7202 50.4664 54.8324 50.4611C55.5777 50.4232 55.1172 50.2281 55.3456 50.1266C55.8785 49.8872 56.3996 50.0475 56.8899 49.9736C57.0262 49.9528 56.9043 49.9173 57.0233 49.8873C57.4954 49.7691 57.7996 49.789 58.3321 49.6013C58.4192 49.5707 58.8305 49.3243 59.1435 49.3747C59.1878 49.3821 59.085 49.4704 59.295 49.4403C59.6086 49.3957 60.172 49.2884 60.5038 49.1935C60.7488 49.1235 60.4411 49.0817 60.761 49.0455C60.9034 49.0293 60.6588 49.1471 60.9252 49.1116C61.1889 49.0769 61.8639 48.924 62.0967 48.8693C62.3394 48.8125 62.1885 48.7634 62.207 48.7537C62.3189 48.6966 62.7786 48.5525 62.8203 48.543C64.8935 48.0618 66.9822 47.704 68.9635 47.1678C69.1229 47.1249 68.9957 47.0684 69.0198 47.061C69.5601 46.8902 69.1816 47.218 69.5843 47.1962C69.4869 47.0419 69.7211 47.0161 70.1058 46.9002C70.2913 46.8441 70.1728 46.8047 70.1882 46.7937C70.4418 46.6251 70.6687 46.7036 70.7254 46.717C70.9348 46.7664 71.1081 46.6018 71.2509 46.6338C71.3936 46.6654 71.1262 46.8338 71.5031 46.7368C71.5936 46.6498 71.2736 46.5639 71.5536 46.4656C71.8994 46.344 72.353 46.2195 72.8401 46.0979L72.9234 46.6028C71.9028 46.6738 70.7643 46.6457 70.1743 46.6338C69.2762 46.6169 68.9894 46.6101 68.479 46.5586C67.5428 46.4495 67.8786 46.5945 67.2892 46.5873C66.7013 46.5691 67.0211 46.3098 66.9471 46.2365C66.8741 46.1622 66.7763 46.2141 66.6823 46.1643C66.5895 46.1144 66.808 46.105 66.5803 46.0557C66.3447 46.0084 65.693 45.9928 65.5916 46.0347C65.3841 46.1297 65.6444 46.3503 65.0287 46.1402C64.9937 46.1277 65.1295 46.0835 64.995 46.0394C63.9372 45.6949 62.8484 45.2335 61.9512 44.575C61.8296 44.4855 61.9896 44.4879 61.9203 44.4353C61.2028 43.861 61.3898 44.1665 60.8873 43.9719C61.1141 43.8763 60.9764 43.6094 60.4745 43.1334C60.1757 42.8456 60.1609 42.9603 59.9217 42.8168C59.8492 42.773 59.6865 42.5173 59.6169 42.51C59.3893 42.4877 59.4714 42.7949 59.0105 42.2479C58.9903 42.2239 59.1169 42.2367 59.0429 42.1579C58.7028 41.7985 58.5157 41.7275 58.233 41.5608L58.5458 41.1118C58.6804 41.1693 58.834 41.2422 59.0255 41.3505C59.5446 41.6451 60.399 42.2558 60.9903 42.6052C60.8514 42.806 61.4448 43.0747 61.7568 43.0515C62.1285 43.2603 62.5703 43.4782 62.9325 43.6768C63.0639 43.7482 62.9453 43.7694 62.959 43.7844C63.1654 44.014 63.4079 43.9424 63.4962 43.9739C64.4527 44.3242 65.2165 44.6672 66.2041 44.7437C66.241 44.7467 66.3222 44.592 66.5599 44.7636C66.5737 44.7749 66.2416 44.7887 66.6926 44.882C67.144 44.9745 67.9904 45.2216 68.6377 45.2741C68.7882 45.2851 69.2185 45.2342 69.4938 45.4034C69.532 45.4265 69.4765 45.4639 69.5305 45.5032C69.7074 45.6294 69.8508 45.4866 70.0402 45.6776C70.2372 45.8705 70.6792 46.0823 71.3283 46.1395C71.3489 46.1416 71.5283 46.0467 71.7325 46.1003C72.039 46.1808 72.4981 46.3287 72.8146 46.4122C72.9696 46.4529 72.8921 46.3456 72.9194 46.3512C73.4872 46.4776 73.9293 46.6088 74.4265 46.7684L74.6629 46.8339L74.4333 46.9227C74.0026 47.0687 73.5514 47.2185 73.0241 47.4187C72.8234 47.494 72.2996 47.8382 71.8808 47.9247C71.4238 48.0205 71.6853 47.4468 70.7619 47.9783C70.3887 48.1956 70.1312 48.8947 69.3327 48.9981C68.0452 49.7325 66.7872 50.2928 65.5932 51.1888C65.5395 51.229 65.4447 51.4664 65.3143 51.5521C65.1204 51.6792 64.9762 51.6961 64.8377 51.787C64.2552 52.1686 63.7784 52.5964 63.2494 53.006C63.0489 53.1626 63.0734 53.0517 62.8357 53.2414C62.5988 53.4323 62.5035 53.6329 62.1653 53.8702C61.9103 54.0497 61.5508 54.119 61.2335 54.3907C61.3513 54.5374 61.1403 54.7286 60.8218 55.1222C60.7609 55.198 60.88 55.1695 60.8536 55.2076C60.7477 55.3636 60.5899 55.4506 60.4959 55.6043C60.473 55.6416 60.5183 55.6866 60.5024 55.7195C60.3687 55.9991 59.9396 56.2701 59.8658 56.3192C59.5832 56.5031 59.5505 56.674 59.3659 56.8431C59.1818 57.0136 59.3769 56.6939 59.1782 56.9072C58.7652 57.3506 58.3198 57.9891 57.988 58.5056C57.8556 58.7121 58.0175 58.6164 58.0002 58.647C57.7492 59.0824 57.4177 59.4852 57.4358 59.8112C56.8856 59.9149 57.3237 60.0962 56.9372 60.7027C56.9071 60.7508 56.6871 60.7303 56.7533 60.5175C56.8201 60.3044 57.0257 60.0352 57.128 59.743C57.1507 59.674 57.182 59.2154 57.2019 59.1593C57.3473 58.7225 57.6493 58.8312 57.675 58.82C57.9673 58.6899 58.0659 58.1552 58.1307 58.0359C58.4188 57.4917 58.7664 57.1006 59.0482 56.6713C59.2339 56.3915 59.0993 56.2367 59.2753 56.0371C59.8689 55.3782 60.2813 55.3541 60.6881 54.595C60.7778 54.434 60.4939 54.3948 61.0769 54.0788C61.1137 54.058 61.5667 53.8536 61.7032 53.5982C61.7203 53.5659 61.6765 53.5183 61.7068 53.4841C61.9112 53.2565 62.0984 53.163 62.3359 52.9321C62.5733 52.7014 62.861 52.4221 63.1728 52.2088C63.3609 52.0794 63.6665 52.0008 63.7708 51.9604C64.0656 51.847 64.2512 51.5428 64.4654 51.5182C64.6803 51.4941 64.4675 51.8337 64.9118 51.6062C64.8314 51.4575 64.7685 51.2912 64.6976 51.1349C65.6091 50.5169 66.557 49.9947 67.5101 49.4473C67.6287 49.3792 67.4624 49.369 67.5887 49.2941C68.121 48.9798 68.6253 48.7837 69.1857 48.47C69.6161 48.2287 70.0625 47.9046 70.5246 47.6624C70.8892 47.7032 71.5627 47.3259 72.0825 47.1239C72.2628 47.0534 72.2715 47.1057 72.4065 47.0668C72.9138 46.9217 72.6217 46.86 72.7438 46.7803C73.2733 46.4407 73.4628 46.7783 74.1335 46.5088C74.1444 46.5045 74.1865 46.4672 74.2407 46.417L74.2791 47.289C74.1083 47.3045 73.8532 47.3375 73.8088 47.3343C73.3988 47.3069 73.7626 47.2473 73.5264 47.1663C73.0934 47.0186 72.7925 46.8864 72.2507 46.8071C72.0833 46.7818 71.7134 46.8185 71.4219 46.644C71.3854 46.6216 71.4237 46.5612 71.3928 46.5495C70.8474 46.3465 70.7688 46.548 70.4316 46.5422C70.0953 46.5367 69.6256 46.2809 69.5264 46.2161C69.2741 46.0486 69.7511 46.2174 69.7597 46.2088C69.9569 46.1217 69.5853 46.0605 69.3031 45.989C69.3097 45.7764 68.9073 45.7044 69.0143 45.917C69.0303 45.941 69.2491 45.9675 69.3031 45.989C69.023 46.1382 68.574 46.0706 68.1342 45.7892C67.9266 45.6575 68.1562 45.594 67.4623 45.501C67.1506 45.4599 67.2416 45.6234 66.9576 45.61C66.3153 45.5803 65.4985 45.2903 64.8324 45.119C64.59 45.0566 64.8018 45.2006 64.6353 45.1596C64.1911 45.0479 63.8274 44.8521 63.3986 44.7058C63.3591 44.6922 63.4202 44.8075 63.2892 44.7533C62.2939 44.3352 61.5143 43.8512 60.5675 43.3184C60.1021 43.0563 59.2887 42.6335 58.8125 42.3386C58.5873 42.1994 58.3471 42.04 58.0908 41.867L58.7838 40.8723C59.3677 41.3913 59.8431 41.9816 60.2551 42.3607C60.632 42.71 60.6113 42.5713 60.8045 42.6803C61.1748 42.893 61.5916 43.4981 61.6567 43.5812C61.6579 43.5857 61.3147 43.3303 61.4641 43.5073C61.5121 43.6601 61.6536 43.5791 61.6567 43.5812C61.6886 43.6423 62.3667 44.1483 62.5265 44.2149C62.6074 44.2542 62.6051 44.1613 62.6465 44.1828C63.6361 44.697 64.7068 45.0615 65.8211 45.3443C65.8409 45.3502 65.7917 45.4289 65.8387 45.4419C66.4888 45.6204 66.9465 45.5778 67.5021 45.5789C68.0719 45.5791 68.5096 45.6271 68.8295 45.7936C69.2596 45.7977 69.8643 45.8752 70.2262 45.9137C70.5749 45.9527 70.626 45.7802 70.6564 45.7767C71.5104 45.6664 72.035 45.7022 72.8539 45.6706L73.0737 47.0031C72.9596 47.0287 72.8406 47.0561 72.7154 47.0864C72.2286 47.2041 71.2808 47.4709 70.7693 47.6185C70.3646 47.7358 70.1099 47.7584 69.7424 47.8761C69.6928 47.892 69.762 47.9528 69.7474 47.9594C69.3525 48.1509 69.5083 47.9214 69.4144 47.9107C69.0744 47.871 68.867 47.8565 68.352 48.0409C68.2332 48.0834 67.942 48.4288 67.7246 48.4975C67.4395 48.587 67.5364 48.4652 67.2254 48.5641C67.199 48.5724 67.2183 48.6285 67.0239 48.6726C66.1218 48.878 65.1439 49.0737 64.2314 49.2907C64.1068 49.3202 64.2878 49.3743 64.108 49.4182C63.2575 49.626 62.3702 49.8233 61.5097 49.9691C61.2988 50.0045 61.4154 49.9116 61.3659 49.9027C61.063 49.8493 60.708 50.1019 60.6442 50.1191C59.1182 50.5355 57.9506 50.6231 56.4204 51.0068C56.3343 51.0287 55.7047 51.3411 55.3802 51.2444C55.3579 51.2382 55.0358 51.1376 54.8004 51.2951C54.7859 51.3049 54.9822 51.3512 54.6654 51.4039C54.3487 51.4565 53.8542 51.6072 53.4099 51.5977C53.2691 51.5949 52.9203 51.497 52.543 51.6959C52.5177 51.7098 51.9552 52.1056 51.6968 51.9489C51.6538 51.9232 51.655 51.7092 51.176 51.9035C51.0846 51.9408 51.2652 51.957 51.0201 52.0298C50.6445 52.1415 50.1302 52.1727 49.6813 52.3432C49.603 52.3732 49.2816 52.572 48.9893 52.5097C48.9436 52.4999 49.0139 52.417 48.8676 52.4329C48.1686 52.5086 47.4797 52.6647 46.7633 52.7233C46.5049 52.7448 46.6186 52.6127 46.3483 52.622C46.0778 52.6315 45.542 52.6794 45.2751 52.7695C45.008 52.8596 45.3327 52.9974 44.924 53.0691C43.1724 53.3758 41.369 53.4873 39.5889 53.6478C39.3267 53.6712 39.5497 53.7149 39.1647 53.7532C37.7731 53.8984 35.1968 54.1422 33.9852 54.0513C32.9483 53.9854 34.2417 53.8463 33.4536 53.8342C33.0748 53.8281 32.6771 54.0516 32.5869 54.0608C31.7077 54.1538 31.1054 54.0691 30.3395 54.1001C30.174 54.1063 30.3373 54.1916 30.1944 54.1958C29.7049 54.2108 29.1976 54.1675 28.7416 54.1653C28.5372 54.1643 28.5734 54.2305 28.386 54.2209C27.9384 54.1982 27.5476 54.1571 27.1238 54.0771C27.0853 54.0697 27.3504 54.0003 27.0277 53.9828C26.512 53.9548 25.807 53.853 25.1912 53.8674C25.0067 53.8716 24.9861 54.0206 24.6037 53.884C24.524 53.8551 24.6432 53.6871 24.1779 53.7988C24.0942 53.8175 23.3421 53.951 22.9519 53.7668C22.8537 53.7193 22.6129 53.5418 22.3885 53.535C22.3579 53.5347 22.4679 53.6303 22.2829 53.6134C21.6314 53.5519 20.9682 53.4393 20.3274 53.3486C20.1549 53.3241 20.3991 53.4532 20.1356 53.4124C19.3888 53.2966 18.4937 53.0798 17.819 52.8816C17.5702 52.8085 17.7608 52.7859 17.7443 52.7741C17.4816 52.5814 17.273 52.6946 17.1639 52.6748C16.5153 52.5561 16.0671 52.3387 15.5048 52.1738C15.3499 52.1277 15.4336 52.2382 15.4009 52.2346C15.0628 52.192 15.3432 52.139 15.1495 52.0559C14.6233 51.8276 13.9682 51.584 13.4101 51.3563C13.2038 51.2721 13.3982 51.4544 13.2134 51.3773C12.1401 50.9318 11.0055 50.3315 10.0664 49.6785C9.88897 49.555 10.0414 49.5686 10.012 49.5311C9.8107 49.2722 9.33893 49.1349 9.24391 49.085C8.80845 48.8595 8.69413 48.6964 8.35131 48.4453C6.6528 47.2251 4.9282 45.2269 3.9244 43.5416C2.58973 41.3258 1.93727 39.4776 1.27553 37.1299C1.23635 36.9856 1.18488 37.1553 1.15006 37.0307C0.702051 35.3978 0.461194 33.7387 0.263385 32.0279C0.247372 31.8857 0.179614 32.0999 0.151264 31.8713C0.0921814 31.3952 0.0560195 30.8529 0.0571344 30.3853C0.057815 30.1602 0.150437 30.4567 0.149811 30.2303C0.149026 29.703 0.134139 29.1305 0.109708 28.5718C0.0993492 28.3337 0.0152497 28.695 0.0091567 28.3848C-0.0294397 26.4014 0.0477 24.3487 0.347223 22.3203C0.36812 22.1783 0.561668 22.0706 0.556369 21.7626C0.508006 21.7347 0.44835 21.7301 0.39524 21.7147C0.653283 18.8036 1.17101 15.9317 1.76112 12.9983C1.7851 12.8794 1.64899 13.0662 1.69509 12.8358C1.96172 11.5062 2.22939 10.1478 2.65206 8.76615C2.69278 8.63426 2.84236 8.74267 2.91106 8.34103C2.92263 8.2706 3.04451 7.6662 3.04707 7.50092C3.04683 7.47839 2.94243 7.56962 2.98773 7.37458C3.24963 6.25229 3.59155 4.99943 3.93613 3.90822C3.99193 3.73194 4.0227 3.94399 4.06319 3.81863C4.34963 2.92957 4.5654 1.91638 4.89464 1.05011C5.11579 0.469932 5.19352 0.730639 5.42422 0.454228C5.45669 0.415252 5.56822 0.0456531 5.65465 0.0500079C5.87186 0.0604392 6.04128 0.304969 6.27905 0.294839C6.32994 0.293245 6.42612 -0.217684 6.45197 0.109238C6.45331 0.132134 6.38529 0.501888 6.39793 0.600888C6.40644 0.669883 6.52071 0.583447 6.51805 0.718268C6.51542 0.852963 6.40671 0.970097 6.3869 1.18769C6.36786 1.40499 6.48689 1.34206 6.38086 1.75429ZM71.8359 46.0512C72.1705 46.1158 72.1996 45.8146 71.851 45.9044C71.8335 45.9091 71.8182 46.0481 71.8359 46.0512ZM66.6749 50.2042C67.1193 50.0909 67.2843 49.773 66.963 49.8422C66.6401 49.9137 66.5394 50.2394 66.6749 50.2042ZM62.9768 52.8879C63.4432 52.6491 63.2479 52.2639 62.8649 52.6772C62.8426 52.7013 62.9496 52.9021 62.9768 52.8879ZM5.04487 1.92519C5.04988 1.92189 5.12786 1.66097 5.12593 1.65354C5.07413 1.48798 4.91813 2.01008 5.04487 1.92519ZM59.7773 56.0879C59.9244 56.004 60.1847 55.6176 59.9982 55.7176C59.8464 55.7981 59.5919 56.1924 59.7773 56.0879ZM56.9326 50.1139C56.9266 50.1106 56.74 50.1445 56.7488 50.1684C56.7775 50.2454 57.0317 50.1702 56.9326 50.1139ZM55.9792 62.717C56.3518 61.6338 56.9453 61.1523 56.4749 62.269C56.3928 62.4743 56.5329 61.7839 56.4066 62.0368C56.174 62.5066 56.2791 62.895 56.0227 63.3695C55.9739 63.4567 55.9546 62.7783 55.9794 62.7149C55.9793 62.7156 55.9793 62.7163 55.9792 62.717ZM72.045 46.4002C72.0512 46.404 72.3159 46.3926 72.3226 46.3881C72.4598 46.285 71.9274 46.3081 72.045 46.4002ZM45.7448 51.9006C45.7282 51.8948 45.1042 51.976 45.0856 51.9861C44.7821 52.1863 46.0446 52.0227 45.7448 51.9006ZM60.9961 42.6159C61.3035 42.6798 61.5957 42.8283 61.7557 43.0508C61.4939 42.9021 61.2523 42.7671 60.9961 42.6159Z" fill="black"/>
</svg>
